<svg width="32" height="32" viewBox="0 0 32 32" fill="none" xmlns="http://www.w3.org/2000/svg">
<path d="M22 3H10V4.813H22V3Z" fill="#007AFF"/>
<path d="M24 6H8V8H24V6Z" fill="#007AFF"/>
<path d="M26 9H6V29H26V9Z" fill="#007AFF"/>
<path d="M13.7784 23.8435C14.976 23.444 15.7042 22.3927 15.4049 21.4953C15.1055 20.5978 13.892 20.1941 12.6944 20.5936C11.4967 20.9931 10.7685 22.0444 11.0679 22.9418C11.3672 23.8393 12.5807 24.243 13.7784 23.8435Z" fill="white"/>
<path d="M15.479 14H15V22H15.479V14Z" fill="white"/>
<path d="M19.571 15.585L15 17V13.7L19.571 12.286V15.585Z" fill="white"/>
</svg>
