<svg width="33" height="32" viewBox="0 0 33 32" fill="none" xmlns="http://www.w3.org/2000/svg">
<path d="M11.0785 27.772C13.2757 27.3384 14.7859 25.6139 14.4517 23.92C14.1174 22.2262 12.0653 21.2046 9.8681 21.6382C7.67091 22.0717 6.16069 23.7963 6.49493 25.4901C6.82917 27.184 8.8813 28.2056 11.0785 27.772Z" fill="#939395"/>
<path d="M23.0209 25.2569C25.2058 24.7653 26.6696 23.0009 26.2906 21.3161C25.9115 19.6312 23.833 18.6639 21.6481 19.1555C19.4633 19.647 17.9994 21.4114 18.3785 23.0962C18.7575 24.7811 20.836 25.7484 23.0209 25.2569Z" fill="#939395"/>
<path d="M14.47 6.625H13.222V24.093H14.47V6.625Z" fill="#939395"/>
<path d="M26.323 4.13H25.076V21.597H26.323V4.13Z" fill="#939395"/>
<path d="M13.222 6.625L25.699 4.13V9.12101L13.846 12.24L13.222 6.625Z" fill="#939395"/>
</svg>
