<svg width="33" height="32" viewBox="0 0 33 32" fill="none" xmlns="http://www.w3.org/2000/svg">
<path d="M11.233 23.695C8.77997 22.016 7.17197 19.197 7.17197 16C7.17197 12.939 8.65197 10.231 10.932 8.53101" stroke="#939395" stroke-width="1.9291" stroke-miterlimit="10" stroke-linecap="round"/>
<path d="M8.62696 5.43994C5.40796 7.84394 3.31296 11.6739 3.31296 15.9999C3.31296 20.5199 5.58896 24.5049 9.05596 26.8799" stroke="#939395" stroke-width="1.9291" stroke-miterlimit="10" stroke-linecap="round"/>
<path d="M21.759 8.30505C24.209 9.98605 25.821 12.8051 25.821 16.0001C25.821 19.0611 24.341 21.7701 22.061 23.4691" stroke="#939395" stroke-width="1.9291" stroke-miterlimit="10" stroke-linecap="round"/>
<path d="M24.363 26.561C27.584 24.157 29.677 20.328 29.677 16C29.677 11.481 27.402 7.496 23.935 5.12" stroke="#939395" stroke-width="1.9291" stroke-miterlimit="10" stroke-linecap="round"/>
<path d="M13.41 20.5119C11.972 19.5269 11.029 17.8739 11.029 15.9999C11.029 14.2069 11.897 12.6189 13.232 11.6219" stroke="#939395" stroke-width="1.9291" stroke-miterlimit="10" stroke-linecap="round"/>
<path d="M10.932 8.53101C8.65297 10.231 7.17197 12.939 7.17197 16C7.17197 19.197 8.77997 22.016 11.234 23.695" stroke="#939395" stroke-width="1.9291" stroke-miterlimit="10" stroke-linecap="round"/>
<path d="M25.82 16.0001C25.82 12.8051 24.209 9.98505 21.758 8.30505" stroke="#939395" stroke-width="1.9291" stroke-miterlimit="10" stroke-linecap="round"/>
<path d="M19.58 11.49C21.018 12.474 21.962 14.127 21.962 16C21.962 17.795 21.093 19.383 19.758 20.379" stroke="#939395" stroke-width="1.9291" stroke-miterlimit="10" stroke-linecap="round"/>
<path d="M19.758 20.379C21.093 19.383 21.962 17.795 21.962 16C21.962 14.127 21.018 12.475 19.58 11.49" stroke="#939395" stroke-width="1.9291" stroke-miterlimit="10" stroke-linecap="round"/>
<path d="M13.232 11.6219C11.897 12.6189 11.029 14.2069 11.029 15.9999C11.029 17.8739 11.972 19.5259 13.41 20.5119" stroke="#939395" stroke-width="1.9291" stroke-miterlimit="10" stroke-linecap="round"/>
<path d="M16.4959 18.1181C17.5619 18.1181 18.4259 17.254 18.4259 16.1881C18.4259 15.1221 17.5619 14.2581 16.4959 14.2581C15.43 14.2581 14.5659 15.1221 14.5659 16.1881C14.5659 17.254 15.43 18.1181 16.4959 18.1181Z" fill="#939395"/>
</svg>
